<?xml version="1.0" encoding="UTF-8" standalone="no"?>
<svg
        width="200"
        height="33.52"
        viewBox="0 0 200 33.52"
        version="1.1"
        xml:space="preserve"
        style="clip-rule:evenodd;fill-rule:evenodd;stroke-linejoin:round;stroke-miterlimit:2"
        id="svg2"
        sodipodi:docname="join_discord_button.svg"
        xmlns:inkscape="http://www.inkscape.org/namespaces/inkscape"
        xmlns:sodipodi="http://sodipodi.sourceforge.net/DTD/sodipodi-0.dtd"
        xmlns="http://www.w3.org/2000/svg"
        xmlns:svg="http://www.w3.org/2000/svg"><defs
     id="defs2" /><sodipodi:namedview
        id="namedview2"
        pagecolor="#505050"
        bordercolor="#eeeeee"
        borderopacity="1" /><g
        id="Artboard"
        transform="scale(1.1173184)"><path
       id="background"
       d="m 179,8 v 14 c 0,4.415 -3.585,8 -8,8 H 8 C 3.585,30 0,26.415 0,22 V 8 C 0,3.585 3.585,0 8,0 h 163 c 4.415,0 8,3.585 8,8 z"
       style="fill:#5865f2" /><text
        x="62.355"
        y="18.032"
        style="font-weight:700;font-size:12px;font-family:Arial-BoldMT, Arial;fill:#ffffff"
        id="text">Join my Discord</text><clipPath
        id="_clip1"><rect
         id="clyde"
         x="24"
         y="7.0799999"
         width="20.9"
         height="15.84" /></clipPath><path
        d="M 41.704,8.407 C 40.331,7.778 38.881,7.332 37.392,7.08 37.189,7.444 37.004,7.819 36.84,8.203 35.254,7.964 33.641,7.964 32.055,8.203 31.891,7.819 31.706,7.444 31.502,7.08 c -1.49,0.254 -2.94,0.701 -4.315,1.33 -2.728,4.037 -3.468,7.974 -3.098,11.855 1.598,1.181 3.386,2.079 5.288,2.655 0.428,-0.576 0.807,-1.187 1.133,-1.826 -0.619,-0.231 -1.216,-0.516 -1.784,-0.852 0.15,-0.108 0.296,-0.22 0.437,-0.329 3.347,1.574 7.227,1.574 10.573,0 0.143,0.117 0.29,0.229 0.438,0.329 -0.57,0.336 -1.168,0.622 -1.787,0.853 0.325,0.64 0.704,1.25 1.132,1.825 1.904,-0.574 3.694,-1.471 5.292,-2.653 0.434,-4.501 -0.741,-8.402 -3.107,-11.86 z m -10.726,9.471 c -1.031,0 -1.882,-0.935 -1.882,-2.086 0,-1.15 0.822,-2.094 1.879,-2.094 1.057,0 1.902,0.944 1.884,2.094 -0.018,1.151 -0.831,2.086 -1.881,2.086 z m 6.944,0 c -1.033,0 -1.881,-0.935 -1.881,-2.086 0,-1.15 0.822,-2.094 1.881,-2.094 1.058,0 1.897,0.944 1.879,2.094 -0.019,1.151 -0.829,2.086 -1.879,2.086 z"
        style="clip-rule:evenodd;fill:#ffffff;fill-rule:nonzero;stroke-linejoin:round;stroke-miterlimit:2"
        id="path1" /></g></svg>