<?xml version="1.0" encoding="UTF-8" standalone="no"?><!DOCTYPE svg PUBLIC "-//W3C//DTD SVG 1.1//EN" "http://www.w3.org/Graphics/SVG/1.1/DTD/svg11.dtd"><svg width="100%" height="100%" viewBox="0 0 179 30" version="1.1" xmlns="http://www.w3.org/2000/svg" xmlns:xlink="http://www.w3.org/1999/xlink" xml:space="preserve" xmlns:serif="http://www.serif.com/" style="fill-rule:evenodd;clip-rule:evenodd;stroke-linejoin:round;stroke-miterlimit:2;"><g id="Artboard"><path id="Rectangle" d="M179,8l0,14c0,4.415 -3.585,8 -8,8l-163,0c-4.415,0 -8,-3.585 -8,-8l0,-14c0,-4.415 3.585,-8 8,-8l163,0c4.415,0 8,3.585 8,8Z" style="fill:#5865f2;"/><g transform="matrix(12,0,0,12,155.712,18.0322)"></g><text x="62.355px" y="18.032px" style="font-family:'Arial-BoldMT', 'Arial';font-weight:700;font-size:12px;fill:#fff;">Join my Discord</text><clipPath id="_clip1"><rect id="icon_clyde_white_RGB.svg" x="24" y="7.08" width="20.9" height="15.84"/></clipPath><g clip-path="url(#_clip1)"><g id="图层_2"><g id="Discord_Logos"><g id="Discord_Logo_-_Large_-_White"><path d="M41.704,8.407c-1.373,-0.629 -2.823,-1.075 -4.312,-1.327c-0.203,0.364 -0.388,0.739 -0.552,1.123c-1.586,-0.239 -3.199,-0.239 -4.785,-0c-0.164,-0.384 -0.349,-0.759 -0.553,-1.123c-1.49,0.254 -2.94,0.701 -4.315,1.33c-2.728,4.037 -3.468,7.974 -3.098,11.855c1.598,1.181 3.386,2.079 5.288,2.655c0.428,-0.576 0.807,-1.187 1.133,-1.826c-0.619,-0.231 -1.216,-0.516 -1.784,-0.852c0.15,-0.108 0.296,-0.22 0.437,-0.329c3.347,1.574 7.227,1.574 10.573,0c0.143,0.117 0.29,0.229 0.438,0.329c-0.57,0.336 -1.168,0.622 -1.787,0.853c0.325,0.64 0.704,1.25 1.132,1.825c1.904,-0.574 3.694,-1.471 5.292,-2.653c0.434,-4.501 -0.741,-8.402 -3.107,-11.86Zm-10.726,9.471c-1.031,0 -1.882,-0.935 -1.882,-2.086c-0,-1.15 0.822,-2.094 1.879,-2.094c1.057,0 1.902,0.944 1.884,2.094c-0.018,1.151 -0.831,2.086 -1.881,2.086Zm6.944,0c-1.033,0 -1.881,-0.935 -1.881,-2.086c0,-1.15 0.822,-2.094 1.881,-2.094c1.058,0 1.897,0.944 1.879,2.094c-0.019,1.151 -0.829,2.086 -1.879,2.086Z" style="fill:#fff;fill-rule:nonzero;"/></g></g></g></g></g></svg>